<?xml version="1.0" encoding="UTF-8"?>
<svg enable-background="new 0 0 1026.5 854" version="1.1" viewBox="0 0 1026.5 854" xml:space="preserve" xmlns="http://www.w3.org/2000/svg">
<style type="text/css">
	.st0{fill:#FFFFFF;}
</style>
<path d="m518 161.7"/>
<path d="m400.6 91.2s15.4-88.7 29.1-85.3 30.1 36.7 36.3 47.9 19.7 26.8 39.2 31.2 66.1-30.1 80.8-56 25.7-31 34.4-28.5 33 32.1 39.2 54.5 13.4 57.1 11 70.9l-4.8 27.6s26.1 7.6 48.1 9.4 78.9 1.6 78.9 1.6 5.3 16.1 4.1 23l-3.3 18.7s-203.2-45.5-270.3-62.3-256.3-60.7-256.3-60.7-0.9-6.3 3.1-17.7c2.5-7 6-13.6 10.5-19.5 0 0 33.9 15 58.3 26.4s61.7 18.8 61.7 18.8z"/>
<path d="m989 295.2c-4.1 0-8.2 0.7-12 2-39.7-26.2-107.8-71.4-110-73.5-3-3 1-12 1-12s9-39 9-43-17-25-25-36-15-18-19-19-11 2-11 2-45 21-47 23c0 0-20.5 10.5-19.5 14.5s4 5 10 8 14.5 3.5 14.5 3.5 10.5-5.5 15.5-10.5 14-9 18-8 9 7 13 12 10 14 10 14 0 8-1 18-5 38-5 38-15 7-18 7-10-3-15-10-10-18-12-20-8 0-15 6-10 8-10 13 12.5 14.5 24 23 27 14 31 15 14-2 23-6 11-9 14-10 6 3 6 3l96.1 68.5c-3.4 7.8-4 16.4-1.9 24.6l-91 58.2c-16.7-9.3-37.7-3.3-46.9 13.4-0.6 1-1.1 2-1.5 3.1-21.3-0.3-62.8-0.9-62.8-0.9l-7-186s-141-11-217-14-213 6-213 6v100c0 59-5 100-5 100l-62.5-3c-8.9-17.3-30-24.4-47.6-16l-127.2-83c2.1-9.9-0.1-20.2-6.1-28.4l85.5-140.7c2.9 0.1 7.4 0.2 11 0.4 5.8 0.3 27.7-1.3 31.2-3.2s12.8-20.5 18.6-35 7.5-32.4 6-37.3-3.9-4.5-9.5-4.1-12.6-1-15.1 3.5-3.4 9.9-4.4 20.7-2.4 22.9-5.1 24.3-14.7 2.2-17.9 0.5-10.2-12.7-18.6-24-15.7-31.3-16.3-34.4c-0.5-3.1 3.3-8.6 6.3-13.6s8.7-7 13.6-8.5 21-1.1 26.3-1.7 8.3-5.6 11.7-12c2.3-4 3.4-8.5 3.2-13.1-0.1-2.2-3.7-2.6-10.8-3.3s-14.3 0.9-29.5 2.2-37.4 6.5-41.8 8.9-5.4 15.4-7.8 23.5-8 31.6-7 35.6 3.4 8.4 9 16.7c5.1 7.6 18.4 25.1 20.7 28l-91.8 151.8c-19.8 1.9-34.3 19.5-32.4 39.3s19.5 34.3 39.3 32.4c4.2-0.4 8.4-1.6 12.2-3.4l126.5 87c-0.1 1.2-0.2 2.4-0.2 3.6 0 17.8 13 33 30.7 35.6l19.3 382.6h585l36.7-389.1c13.8-1.9 25.1-12 28.7-25.5l108.3-69.3c0.8 0 1.6 0.1 2.3 0.1 20.7 0 37.5-16.8 37.5-37.5s-16.8-37.5-37.5-37.5z"/>
<ellipse class="st0" transform="matrix(.1602 -.9871 .9871 .1602 -238.76 635.84)" cx="254.3" cy="458.2" rx="7" ry="7"/>
<ellipse class="st0" transform="matrix(.1602 -.9871 .9871 .1602 -285.16 675.31)" cx="254.3" cy="505.2" rx="7" ry="7"/>
<ellipse class="st0" transform="matrix(.1602 -.9871 .9871 .1602 -332.54 715.62)" cx="254.3" cy="553.2" rx="7" ry="7"/>
<ellipse class="st0" transform="matrix(.1602 -.9871 .9871 .1602 -377.94 754.25)" cx="254.3" cy="599.2" rx="7" ry="7"/>
<ellipse class="st0" transform="matrix(.1602 -.9871 .9871 .1602 -423.35 792.88)" cx="254.3" cy="645.2" rx="7" ry="7"/>
<circle class="st0" cx="798.3" cy="452.2" r="7"/>
<circle class="st0" cx="798.3" cy="505.2" r="7"/>
<circle class="st0" cx="798.3" cy="555.2" r="7"/>
<circle class="st0" cx="798.3" cy="605.2" r="7"/>
<circle class="st0" cx="798.3" cy="656.2" r="7"/>
<circle class="st0" cx="300.3" cy="462.6" r="7"/>
<circle class="st0" cx="350.3" cy="464" r="7"/>
<circle class="st0" cx="400.3" cy="466.4" r="7"/>
<circle class="st0" cx="450.3" cy="466.8" r="7"/>
<circle class="st0" cx="500.3" cy="467.2" r="7"/>
<circle class="st0" cx="550.3" cy="465.6" r="7"/>
<circle class="st0" cx="600.3" cy="464" r="7"/>
<circle class="st0" cx="650.3" cy="463.4" r="7"/>
<circle class="st0" cx="700.3" cy="458.8" r="7"/>
<circle class="st0" cx="748.3" cy="458.2" r="7"/>
<circle class="st0" cx="653" cy="529.7" r="11"/>
<circle class="st0" cx="710" cy="492.7" r="11"/>
<circle class="st0" cx="764" cy="532.7" r="11"/>
<circle class="st0" cx="741" cy="597.7" r="11"/>
<circle class="st0" cx="671.3" cy="596.6" r="11"/>
<polygon class="st0" points="741.2 599.1 707.2 572.4 671.3 596.6 686.1 556 652.1 529.4 695.3 530.9 710.1 490.3 722 531.8 765.2 533.4 729.3 557.5"/>
<path class="st0" d="m340 305.7s96 4 177 5 195 2 195 2 4 28 5 47 4 50 4 50l-380 2-1-106z"/>
<circle class="st0" cx="656" cy="271.7" r="25.5"/>
<circle class="st0" cx="411" cy="267.7" r="25.5"/>
<ellipse class="st0" transform="matrix(.1602 -.9871 .9871 .1602 -471.86 835.86)" cx="255.3" cy="695.2" rx="7" ry="7"/>
<circle class="st0" cx="796.3" cy="707.2" r="7"/>
<polygon points="529.9 397 502.1 330.4 458.3 394.6 450.3 341.8 430.6 372.8 414.2 350.3 398.4 366.2 360.6 369.2 360.3 365.2 396.6 362.3 414.7 344.2 430.4 365.7 452.7 330.7 460.7 383.9 502.9 322.1 531.1 389.5 550.3 367.3 557.3 388.5 587.9 356.9 598 375.1 613.7 361.2 614.5 361.2 704.5 360.2 704.5 364.2 615.3 365.2 596.9 381.4 587 363.6 555.6 396 548.7 375.2"/>
<ellipse class="st0" transform="matrix(.1602 -.9871 .9871 .1602 -516.43 875.48)" cx="256.3" cy="741.2" rx="7" ry="7"/>
<ellipse class="st0" transform="matrix(.1602 -.9871 .9871 .1602 -558.18 914.4)" cx="258.3" cy="785.2" rx="7" ry="7"/>
<circle class="st0" cx="795.3" cy="757.2" r="7"/>
<circle class="st0" cx="793.3" cy="797.2" r="7"/>
<circle class="st0" cx="791.3" cy="835.2" r="7"/>
<ellipse class="st0" transform="matrix(.1602 -.9871 .9871 .1602 -606.7 957.38)" cx="259.3" cy="835.2" rx="7" ry="7"/>
</svg>
